运行 java测试 案例 com.example.demo.FFmpegJNITest
sbc run -t -v /home/user/JAVA-TEST/java-rtf-test/ffmpeg/files:/tmp@/home/user/JAVA-TEST/java-rtf-test/rmi.sh:/opt/app/lib/logback-classic-1.2.3.jar@/home/user/JAVA-TEST/java-rtf-test/test-classes/com:/opt/app/test-classes/com -p docker.bplatform.demo/java_rtf_lx:2.1 docker.bplatform.demo/java_rtf_test_all:1.0  /opt/app/runTest com.example.demo.FFmpegJNITest demuxing_decoding /tmp/01.wmv1 /tmp/03.pcm
TEST_DIR=/opt/app
/usr/lib/jvm/java-11-openjdk-mips64el/bin/java -classpath /opt/app/lib/*:/opt/app/classes:/opt/app/test-classes com.example.demo.FFmpegJNITest demuxing_decoding /tmp/01.wmv1 /tmp/03.pcm
OpenJDK 64-Bit Zero VM warning: You have loaded library /usr/lib/libffmpeg-jni.so which might have disabled stack guard. The VM will try to fix the stack guard now.
It's highly recommended that you fix the library with 'execstack -c <libfile>', or link it with '-z noexecstack'.
音视频分离
Input #0, mpeg, from '/tmp/01.wmv1':
  Duration: 00:00:10.05, start: 0.529089, bitrate: 751 kb/s
    Stream #0:0[0x1e0]: Video: mpeg1video, yuv420p(tv), 640x480 [SAR 1:1 DAR 4:3], 104857 kb/s, 25 fps, 25 tbr, 90k tbn, 25 tbc
    Stream #0:1[0x1c0]: Audio: mp2, 44100 Hz, stereo, s16p, 64 kb/s
Demuxing video from file '/tmp/01.wmv1' into '/tmp/03.pcm'
Demuxing audio from file '/tmp/01.wmv1' into '/tmp/03.pcm'
Demuxing succeeded.
Play the output video file with the command:
ffplay -f rawvideo -pix_fmt yuv420p -video_size 640x480 /tmp/03.pcm
Warning: the sample format the decoder produced is planar (s16p). This example will output the first channel only.
Play the output audio file with the command:
ffplay -f s16le -ac 1 -ar 44100 /tmp/03.pcm
